# Blender 5.0.1
# www.blender.org
o Cube.001
v -0.514562 0.000000 0.320000
v -0.514562 1.500000 0.320000
v -0.514562 0.000000 -0.320000
v -0.514562 1.500000 -0.320000
v -0.057183 0.000000 0.320000
v -0.057183 1.500000 0.320000
v -0.057183 0.000000 -0.320000
v -0.057183 1.500000 -0.320000
v 0.057162 0.000000 0.320000
v 0.057162 1.500000 0.320000
v 0.057162 0.000000 -0.320000
v 0.057162 1.500000 -0.320000
v 0.514540 0.000000 0.320000
v 0.514540 1.500000 0.320000
v 0.514540 0.000000 -0.320000
v 0.514540 1.500000 -0.320000
v -0.594603 1.500000 0.320000
v -0.594603 1.500000 -0.320000
v 0.594581 1.500000 0.320000
v 0.594581 1.500000 -0.320000
v -0.594603 3.000000 0.320000
v -0.594603 3.000000 -0.320000
v 0.594581 3.000000 -0.320000
v 0.594581 3.000000 0.320000
v 0.413528 3.853429 0.476301
v 0.413528 3.853429 -0.476301
v -0.413550 3.853429 -0.476301
v -0.413550 3.853429 0.476301
v -0.413550 3.000000 0.476301
v -0.413550 3.000000 -0.476301
v 0.413528 3.000000 -0.476301
v 0.413528 3.000000 0.476301
v -1.052400 1.500000 0.320000
v -1.052400 3.000000 0.320000
v -1.052400 1.500000 -0.320000
v -1.052400 3.000000 -0.320000
v -0.595022 1.500000 0.320000
v -0.595022 3.000000 0.320000
v -0.595022 1.500000 -0.320000
v -0.595022 3.000000 -0.320000
v 0.594837 1.500000 0.320000
v 0.594837 3.000000 0.320000
v 0.594837 1.500000 -0.320000
v 0.594837 3.000000 -0.320000
v 1.052216 1.500000 0.320000
v 1.052216 3.000000 0.320000
v 1.052216 1.500000 -0.320000
v 1.052216 3.000000 -0.320000
vn -1.0000 -0.0000 -0.0000
vn -0.0000 -0.0000 -1.0000
vn 1.0000 -0.0000 -0.0000
vn -0.0000 -0.0000 1.0000
vn -0.0000 -1.0000 -0.0000
vn -0.0000 1.0000 -0.0000
s 0
f 2//1 3//1 1//1
f 4//2 7//2 3//2
f 8//3 5//3 7//3
f 6//4 1//4 5//4
f 7//5 1//5 3//5
f 4//6 6//6 8//6
f 10//1 11//1 9//1
f 12//2 15//2 11//2
f 16//3 13//3 15//3
f 14//4 9//4 13//4
f 15//5 9//5 11//5
f 12//6 14//6 16//6
f 19//5 18//5 20//5
f 22//6 24//6 23//6
f 20//3 24//3 19//3
f 17//1 22//1 18//1
f 19//4 21//4 17//4
f 18//2 23//2 20//2
f 27//6 25//6 26//6
f 32//5 30//5 31//5
f 32//4 28//4 29//4
f 30//2 26//2 31//2
f 31//3 25//3 32//3
f 29//1 27//1 30//1
f 34//1 35//1 33//1
f 36//2 39//2 35//2
f 40//3 37//3 39//3
f 38//4 33//4 37//4
f 39//5 33//5 35//5
f 36//6 38//6 40//6
f 42//1 43//1 41//1
f 44//2 47//2 43//2
f 48//3 45//3 47//3
f 46//4 41//4 45//4
f 47//5 41//5 43//5
f 44//6 46//6 48//6
f 2//1 4//1 3//1
f 4//2 8//2 7//2
f 8//3 6//3 5//3
f 6//4 2//4 1//4
f 7//5 5//5 1//5
f 4//6 2//6 6//6
f 10//1 12//1 11//1
f 12//2 16//2 15//2
f 16//3 14//3 13//3
f 14//4 10//4 9//4
f 15//5 13//5 9//5
f 12//6 10//6 14//6
f 19//5 17//5 18//5
f 22//6 21//6 24//6
f 20//3 23//3 24//3
f 17//1 21//1 22//1
f 19//4 24//4 21//4
f 18//2 22//2 23//2
f 27//6 28//6 25//6
f 32//5 29//5 30//5
f 32//4 25//4 28//4
f 30//2 27//2 26//2
f 31//3 26//3 25//3
f 29//1 28//1 27//1
f 34//1 36//1 35//1
f 36//2 40//2 39//2
f 40//3 38//3 37//3
f 38//4 34//4 33//4
f 39//5 37//5 33//5
f 36//6 34//6 38//6
f 42//1 44//1 43//1
f 44//2 48//2 47//2
f 48//3 46//3 45//3
f 46//4 42//4 41//4
f 47//5 45//5 41//5
f 44//6 42//6 46//6
